STARTFONT 2.1
COMMENT
COMMENT Converted from OpenType font "Q:\font stuff\winfont\Continuum Medium.ttf" by "otf2bdf 3.0".
COMMENT
FONT -FreeType-Continuum Medium-Medium-R-Normal--22-220-72-72-P-98-ISO10646-1
SIZE 22 72 72
FONTBOUNDINGBOX 25 27 -3 -5
STARTPROPERTIES 19
FOUNDRY "FreeType"
FAMILY_NAME "Continuum Medium"
WEIGHT_NAME "Medium"
SLANT "R"
SETWIDTH_NAME "Normal"
ADD_STYLE_NAME ""
PIXEL_SIZE 22
POINT_SIZE 220
RESOLUTION_X 72
RESOLUTION_Y 72
SPACING "P"
AVERAGE_WIDTH 98
CHARSET_REGISTRY "ISO10646"
CHARSET_ENCODING "1"
FONT_ASCENT 22
FONT_DESCENT 5
COPYRIGHT "Copyright © 1996, 1997 Brøderbund Software. All rights reserved."
_OTF_FONTFILE "Q:\font stuff\winfont\Continuum Medium.ttf"
_OTF_PSNAME "ContinuumMedium"
ENDPROPERTIES
CHARS 246
STARTCHAR 0020
ENCODING 32
SWIDTH 272 0
DWIDTH 6 0
BBX 0 0 0 0
BITMAP
ENDCHAR
STARTCHAR 0021
ENCODING 33
SWIDTH 227 0
DWIDTH 5 0
BBX 2 15 2 0
BITMAP
C0
C0
C0
C0
C0
C0
C0
C0
C0
C0
C0
C0
00
C0
C0
ENDCHAR
STARTCHAR 0022
ENCODING 34
SWIDTH 318 0
DWIDTH 7 0
BBX 5 6 1 10
BITMAP
58
F0
F0
F0
F0
F0
ENDCHAR
STARTCHAR 0023
ENCODING 35
SWIDTH 590 0
DWIDTH 13 0
BBX 11 16 1 0
BITMAP
0CC0
0CC0
0CC0
0880
1880
7FE0
7FE0
1980
1100
3100
FFE0
FFC0
3300
2200
6200
6600
ENDCHAR
STARTCHAR 0024
ENCODING 36
SWIDTH 545 0
DWIDTH 12 0
BBX 10 18 1 -2
BITMAP
3FC0
7FC0
C400
C400
C400
C400
C400
FF80
3FC0
04C0
04C0
04C0
04C0
04C0
FF80
FF00
0400
0400
ENDCHAR
STARTCHAR 0025
ENCODING 37
SWIDTH 727 0
DWIDTH 16 0
BBX 14 16 1 0
BITMAP
F830
FC30
CC60
CCC0
CCC0
FD80
F980
0300
0300
06F8
06FC
0CCC
1CCC
18CC
38FC
30F8
ENDCHAR
STARTCHAR 0026
ENCODING 38
SWIDTH 727 0
DWIDTH 16 0
BBX 13 16 1 0
BITMAP
1F00
7F80
60C0
60C0
60C0
71C0
3F80
3F00
3C30
FE30
C730
C3B0
C1F0
C0F0
7FF8
3FF8
ENDCHAR
STARTCHAR 0027
ENCODING 39
SWIDTH 181 0
DWIDTH 4 0
BBX 2 6 1 10
BITMAP
C0
C0
C0
C0
C0
C0
ENDCHAR
STARTCHAR 0028
ENCODING 40
SWIDTH 272 0
DWIDTH 6 0
BBX 3 19 1 -2
BITMAP
60
60
C0
C0
C0
C0
C0
C0
C0
C0
C0
C0
C0
C0
C0
C0
C0
60
60
ENDCHAR
STARTCHAR 0029
ENCODING 41
SWIDTH 272 0
DWIDTH 6 0
BBX 4 19 1 -2
BITMAP
E0
60
30
30
30
30
30
30
30
30
30
30
30
30
30
30
30
60
E0
ENDCHAR
STARTCHAR 002A
ENCODING 42
SWIDTH 363 0
DWIDTH 8 0
BBX 6 8 1 8
BITMAP
30
10
D4
7C
28
D4
10
30
ENDCHAR
STARTCHAR 002B
ENCODING 43
SWIDTH 636 0
DWIDTH 14 0
BBX 12 12 1 2
BITMAP
0600
0600
0600
0600
0600
FFF0
FFF0
0600
0600
0600
0600
0600
ENDCHAR
STARTCHAR 002C
ENCODING 44
SWIDTH 181 0
DWIDTH 4 0
BBX 2 5 1 -2
BITMAP
80
C0
80
80
80
ENDCHAR
STARTCHAR 002D
ENCODING 45
SWIDTH 318 0
DWIDTH 7 0
BBX 6 2 1 5
BITMAP
FC
FC
ENDCHAR
STARTCHAR 002E
ENCODING 46
SWIDTH 181 0
DWIDTH 4 0
BBX 2 3 2 0
BITMAP
80
C0
80
ENDCHAR
STARTCHAR 002F
ENCODING 47
SWIDTH 545 0
DWIDTH 12 0
BBX 10 16 1 0
BITMAP
00C0
00C0
0180
0380
0300
0700
0600
0E00
0C00
1C00
1800
3000
3000
6000
6000
C000
ENDCHAR
STARTCHAR 0030
ENCODING 48
SWIDTH 636 0
DWIDTH 14 0
BBX 11 16 1 0
BITMAP
3F80
7FE0
7E60
E060
C060
C060
C060
C060
C060
C060
C060
C060
C060
6060
7FE0
1FC0
ENDCHAR
STARTCHAR 0031
ENCODING 49
SWIDTH 636 0
DWIDTH 14 0
BBX 2 16 6 0
BITMAP
C0
C0
C0
C0
C0
C0
C0
C0
C0
C0
C0
C0
C0
C0
C0
C0
ENDCHAR
STARTCHAR 0032
ENCODING 50
SWIDTH 636 0
DWIDTH 14 0
BBX 10 16 2 0
BITMAP
FF00
FF80
00C0
00C0
00C0
00C0
00C0
00C0
3F80
7F00
C000
C000
C000
C000
FFC0
FFC0
ENDCHAR
STARTCHAR 0033
ENCODING 51
SWIDTH 636 0
DWIDTH 14 0
BBX 10 16 2 0
BITMAP
FF00
FF80
01C0
00C0
00C0
00C0
01C0
1F80
1F80
01C0
00C0
00C0
00C0
01C0
FF80
FF00
ENDCHAR
STARTCHAR 0034
ENCODING 52
SWIDTH 636 0
DWIDTH 14 0
BBX 10 16 2 0
BITMAP
06C0
0EC0
0CC0
1CC0
18C0
30C0
30C0
60C0
E0C0
C0C0
FFC0
7FC0
00C0
00C0
00C0
00C0
ENDCHAR
STARTCHAR 0035
ENCODING 53
SWIDTH 636 0
DWIDTH 14 0
BBX 10 16 2 0
BITMAP
FFC0
FFC0
C000
C000
C000
C000
FF00
FF80
00C0
00C0
00C0
00C0
00C0
00C0
FF80
FF00
ENDCHAR
STARTCHAR 0036
ENCODING 54
SWIDTH 636 0
DWIDTH 14 0
BBX 11 16 1 0
BITMAP
3FE0
7FE0
E000
C000
C000
C000
FFC0
FFE0
E060
C060
C060
C060
C060
E060
7FE0
3FC0
ENDCHAR
STARTCHAR 0037
ENCODING 55
SWIDTH 636 0
DWIDTH 14 0
BBX 10 16 2 0
BITMAP
FFC0
FFC0
00C0
0180
0180
0180
0300
0300
0600
0600
0600
0C00
0C00
1800
1800
3800
ENDCHAR
STARTCHAR 0038
ENCODING 56
SWIDTH 636 0
DWIDTH 14 0
BBX 11 16 1 0
BITMAP
3FC0
7FE0
7F60
E060
C060
C060
6060
7FE0
7FE0
6060
C060
C060
C060
6060
7FE0
3FC0
ENDCHAR
STARTCHAR 0039
ENCODING 57
SWIDTH 636 0
DWIDTH 14 0
BBX 11 16 1 0
BITMAP
3FC0
7FE0
E060
C060
C060
C060
C060
E060
7FE0
3FE0
0060
0060
0060
0060
FFE0
FFC0
ENDCHAR
STARTCHAR 003A
ENCODING 58
SWIDTH 181 0
DWIDTH 4 0
BBX 3 9 1 0
BITMAP
C0
C0
00
00
00
00
00
60
60
ENDCHAR
STARTCHAR 003B
ENCODING 59
SWIDTH 227 0
DWIDTH 5 0
BBX 3 11 1 -2
BITMAP
40
40
00
00
00
00
E0
E0
C0
40
C0
ENDCHAR
STARTCHAR 003C
ENCODING 60
SWIDTH 500 0
DWIDTH 11 0
BBX 11 8 0 4
BITMAP
00C0
03C0
1F80
FC00
F800
3F80
07E0
00C0
ENDCHAR
STARTCHAR 003D
ENCODING 61
SWIDTH 636 0
DWIDTH 14 0
BBX 12 7 1 4
BITMAP
FFF0
FFF0
0000
0000
0000
FFF0
FFF0
ENDCHAR
STARTCHAR 003E
ENCODING 62
SWIDTH 454 0
DWIDTH 10 0
BBX 11 8 0 4
BITMAP
C000
F800
3F00
0FC0
07E0
3F80
F800
C000
ENDCHAR
STARTCHAR 003F
ENCODING 63
SWIDTH 500 0
DWIDTH 11 0
BBX 10 15 0 0
BITMAP
FF80
FFC0
00C0
00C0
00C0
00C0
1FC0
1F80
1800
1800
1800
1800
0000
1000
1000
ENDCHAR
STARTCHAR 0040
ENCODING 64
SWIDTH 727 0
DWIDTH 16 0
BBX 14 16 1 0
BITMAP
3FE0
7FF8
E018
C00C
CFCC
CFEC
C06C
C7EC
CFEC
CC68
CFF8
C7F0
C00C
E018
7FF8
3FE0
ENDCHAR
STARTCHAR 0041
ENCODING 65
SWIDTH 590 0
DWIDTH 13 0
BBX 13 16 0 0
BITMAP
0300
0700
0780
0F80
0DC0
0CC0
18C0
18E0
1860
3060
3070
7FF0
7FF0
6018
C018
C018
ENDCHAR
STARTCHAR 0042
ENCODING 66
SWIDTH 636 0
DWIDTH 14 0
BBX 11 16 1 0
BITMAP
FFC0
FFE0
C060
C060
C060
C060
C060
FFE0
FFE0
C060
C060
C060
C060
C060
FFE0
FFC0
ENDCHAR
STARTCHAR 0043
ENCODING 67
SWIDTH 545 0
DWIDTH 12 0
BBX 10 16 1 0
BITMAP
3FC0
7FC0
6000
C000
C000
C000
C000
C000
C000
C000
C000
C000
C000
6000
7FC0
3FC0
ENDCHAR
STARTCHAR 0044
ENCODING 68
SWIDTH 636 0
DWIDTH 14 0
BBX 11 16 1 0
BITMAP
FFC0
FFE0
C060
C060
C060
C060
C060
C060
C060
C060
C060
C060
C060
C060
FFE0
FF80
ENDCHAR
STARTCHAR 0045
ENCODING 69
SWIDTH 590 0
DWIDTH 13 0
BBX 10 16 1 0
BITMAP
3FC0
7FC0
6000
C000
C000
C000
C000
FFC0
FFC0
C000
C000
C000
C000
6000
7FC0
3FC0
ENDCHAR
STARTCHAR 0046
ENCODING 70
SWIDTH 545 0
DWIDTH 12 0
BBX 11 16 1 0
BITMAP
3FE0
7FE0
6000
C000
C000
C000
C000
FFC0
FFC0
C000
C000
C000
C000
C000
C000
C000
ENDCHAR
STARTCHAR 0047
ENCODING 71
SWIDTH 636 0
DWIDTH 14 0
BBX 11 16 1 0
BITMAP
3FC0
7FC0
6000
C000
C000
C000
C000
C060
C060
C060
C060
C060
C060
6060
7FE0
3FC0
ENDCHAR
STARTCHAR 0048
ENCODING 72
SWIDTH 636 0
DWIDTH 14 0
BBX 11 16 1 0
BITMAP
C060
C060
C060
C060
C060
C060
C060
FFE0
FFE0
C060
C060
C060
C060
C060
C060
C060
ENDCHAR
STARTCHAR 0049
ENCODING 73
SWIDTH 227 0
DWIDTH 5 0
BBX 2 16 1 0
BITMAP
C0
C0
C0
C0
C0
C0
C0
C0
C0
C0
C0
C0
C0
C0
C0
C0
ENDCHAR
STARTCHAR 004A
ENCODING 74
SWIDTH 272 0
DWIDTH 6 0
BBX 4 16 1 0
BITMAP
30
30
30
30
30
30
30
30
30
30
30
30
30
30
E0
C0
ENDCHAR
STARTCHAR 004B
ENCODING 75
SWIDTH 545 0
DWIDTH 12 0
BBX 11 16 1 0
BITMAP
00E0
E1C0
E180
E300
E700
EE00
EC00
F800
F800
FC00
EE00
E700
E380
E1C0
E1C0
E0E0
ENDCHAR
STARTCHAR 004C
ENCODING 76
SWIDTH 500 0
DWIDTH 11 0
BBX 10 16 1 0
BITMAP
C000
C000
C000
C000
C000
C000
C000
C000
C000
C000
C000
C000
C000
6000
7FC0
3FC0
ENDCHAR
STARTCHAR 004D
ENCODING 77
SWIDTH 818 0
DWIDTH 18 0
BBX 15 16 1 0
BITMAP
700E
F00E
F01E
D81E
D81E
D81E
CC36
CC36
CC36
CE66
C666
C666
C766
C3C6
C3C6
C186
ENDCHAR
STARTCHAR 004E
ENCODING 78
SWIDTH 636 0
DWIDTH 14 0
BBX 11 16 1 -1
BITMAP
6060
F060
F060
F860
D860
D860
CC60
CC60
C660
C660
C760
C360
C360
C1E0
C1E0
C0E0
ENDCHAR
STARTCHAR 004F
ENCODING 79
SWIDTH 636 0
DWIDTH 14 0
BBX 11 16 1 0
BITMAP
3F80
7FE0
6060
C060
C060
C060
C060
C060
C060
C060
C060
C060
C060
6060
7FE0
1F80
ENDCHAR
STARTCHAR 0050
ENCODING 80
SWIDTH 590 0
DWIDTH 13 0
BBX 11 16 1 0
BITMAP
FFC0
FFE0
C060
C060
C060
C060
C060
C060
FFE0
FF80
C000
C000
C000
C000
C000
C000
ENDCHAR
STARTCHAR 0051
ENCODING 81
SWIDTH 636 0
DWIDTH 14 0
BBX 11 18 1 -2
BITMAP
3FC0
7FE0
E060
C060
C060
C060
C060
C060
C060
C060
C060
C060
C060
E060
7FE0
3F80
01C0
00E0
ENDCHAR
STARTCHAR 0052
ENCODING 82
SWIDTH 590 0
DWIDTH 13 0
BBX 11 16 1 0
BITMAP
FFC0
FFE0
C060
C060
C060
C060
C060
DFE0
DFC0
DC00
CC00
C600
C300
C380
C1C0
C0E0
ENDCHAR
STARTCHAR 0053
ENCODING 83
SWIDTH 545 0
DWIDTH 12 0
BBX 10 16 1 0
BITMAP
7FC0
FFC0
C000
C000
C000
C000
C000
FF00
3F80
00C0
00C0
00C0
00C0
00C0
FF80
FF00
ENDCHAR
STARTCHAR 0054
ENCODING 84
SWIDTH 409 0
DWIDTH 9 0
BBX 8 16 0 0
BITMAP
FF
FF
18
18
18
18
18
18
18
18
18
18
18
18
18
18
ENDCHAR
STARTCHAR 0055
ENCODING 85
SWIDTH 636 0
DWIDTH 14 0
BBX 11 16 1 0
BITMAP
C060
C060
C060
C060
C060
C060
C060
C060
C060
C060
C060
C060
C060
6060
7FE0
3FC0
ENDCHAR
STARTCHAR 0056
ENCODING 86
SWIDTH 590 0
DWIDTH 13 0
BBX 13 16 0 0
BITMAP
C018
C018
6038
6030
6030
3070
3060
3860
18C0
18C0
1CC0
0D80
0D80
0780
0700
0700
ENDCHAR
STARTCHAR 0057
ENCODING 87
SWIDTH 818 0
DWIDTH 18 0
BBX 18 16 0 0
BITMAP
C0C0C0
61E0C0
61E180
61E180
61E180
61B180
333180
333300
333300
333300
3B3B00
1E1F00
1E1E00
1E1E00
1E1E00
0C0C00
ENDCHAR
STARTCHAR 0058
ENCODING 88
SWIDTH 636 0
DWIDTH 14 0
BBX 14 16 0 0
BITMAP
6018
3030
3870
18E0
0CC0
0FC0
0780
0300
0780
0FC0
0CC0
1860
3870
3030
6018
E01C
ENDCHAR
STARTCHAR 0059
ENCODING 89
SWIDTH 590 0
DWIDTH 13 0
BBX 13 16 0 0
BITMAP
C038
E030
6060
70E0
30C0
1980
1B80
0F00
0E00
0600
0600
0600
0600
0600
0600
0600
ENDCHAR
STARTCHAR 005A
ENCODING 90
SWIDTH 500 0
DWIDTH 11 0
BBX 10 16 1 0
BITMAP
FF80
FFC0
01C0
0380
0300
0600
0E00
0C00
1800
3800
3000
6000
E000
C000
FFC0
FFC0
ENDCHAR
STARTCHAR 005B
ENCODING 91
SWIDTH 272 0
DWIDTH 6 0
BBX 4 19 1 -2
BITMAP
F0
F0
C0
C0
C0
C0
C0
C0
C0
C0
C0
C0
C0
C0
C0
C0
C0
F0
F0
ENDCHAR
STARTCHAR 005C
ENCODING 92
SWIDTH 590 0
DWIDTH 13 0
BBX 11 15 1 0
BITMAP
E000
6000
7000
3000
1800
1C00
0C00
0E00
0600
0300
0380
0180
01C0
00C0
0060
ENDCHAR
STARTCHAR 005D
ENCODING 93
SWIDTH 272 0
DWIDTH 6 0
BBX 4 19 1 -2
BITMAP
F0
F0
30
30
30
30
30
30
30
30
30
30
30
30
30
30
30
F0
F0
ENDCHAR
STARTCHAR 005E
ENCODING 94
SWIDTH 454 0
DWIDTH 10 0
BBX 10 9 0 6
BITMAP
0C00
0A00
1200
1100
2100
6080
4080
C040
8040
ENDCHAR
STARTCHAR 005F
ENCODING 95
SWIDTH 545 0
DWIDTH 12 0
BBX 12 1 0 -3
BITMAP
FFF0
ENDCHAR
STARTCHAR 0060
ENCODING 96
SWIDTH 318 0
DWIDTH 7 0
BBX 4 3 1 13
BITMAP
E0
60
30
ENDCHAR
STARTCHAR 0061
ENCODING 97
SWIDTH 545 0
DWIDTH 12 0
BBX 10 12 1 0
BITMAP
FF80
FFC0
00C0
00C0
3FC0
7FC0
E0C0
C0C0
C0C0
C0C0
7FC0
3F80
ENDCHAR
STARTCHAR 0062
ENCODING 98
SWIDTH 545 0
DWIDTH 12 0
BBX 10 16 1 0
BITMAP
C000
C000
C000
C000
FF80
FFC0
C0C0
C0C0
C0C0
C0C0
C0C0
C0C0
C0C0
E0C0
7FC0
3F80
ENDCHAR
STARTCHAR 0063
ENCODING 99
SWIDTH 454 0
DWIDTH 10 0
BBX 8 12 1 0
BITMAP
3F
7F
E0
C0
C0
C0
C0
C0
C0
E0
7F
3F
ENDCHAR
STARTCHAR 0064
ENCODING 100
SWIDTH 545 0
DWIDTH 12 0
BBX 10 16 1 0
BITMAP
00C0
00C0
00C0
00C0
3FC0
7FC0
E0C0
C0C0
C0C0
C0C0
C0C0
C0C0
C0C0
E0C0
7FC0
3F80
ENDCHAR
STARTCHAR 0065
ENCODING 101
SWIDTH 545 0
DWIDTH 12 0
BBX 10 12 1 0
BITMAP
3F80
7F80
E0C0
C0C0
C3C0
CF00
FC00
F000
C000
E000
7FC0
3FC0
ENDCHAR
STARTCHAR 0066
ENCODING 102
SWIDTH 227 0
DWIDTH 5 0
BBX 4 16 1 0
BITMAP
30
70
E0
C0
F0
F0
C0
C0
C0
C0
C0
C0
C0
C0
C0
C0
ENDCHAR
STARTCHAR 0067
ENCODING 103
SWIDTH 545 0
DWIDTH 12 0
BBX 10 16 1 -4
BITMAP
3F80
7FC0
E0C0
C0C0
C0C0
C0C0
C0C0
C0C0
C0C0
E0C0
7FC0
3FC0
00C0
00C0
FFC0
FF80
ENDCHAR
STARTCHAR 0068
ENCODING 104
SWIDTH 545 0
DWIDTH 12 0
BBX 10 16 1 0
BITMAP
C000
C000
C000
C000
FF80
FFC0
E0C0
C0C0
C0C0
C0C0
C0C0
C0C0
C0C0
C0C0
C0C0
C0C0
ENDCHAR
STARTCHAR 0069
ENCODING 105
SWIDTH 227 0
DWIDTH 5 0
BBX 3 16 1 0
BITMAP
60
60
00
00
C0
C0
C0
C0
C0
C0
C0
C0
C0
C0
C0
C0
ENDCHAR
STARTCHAR 006A
ENCODING 106
SWIDTH 227 0
DWIDTH 5 0
BBX 4 20 1 -4
BITMAP
30
30
00
00
30
30
30
30
30
30
30
30
30
30
30
30
30
30
E0
E0
ENDCHAR
STARTCHAR 006B
ENCODING 107
SWIDTH 545 0
DWIDTH 12 0
BBX 10 15 1 0
BITMAP
C000
C000
C000
C1C0
C380
C700
CE00
DC00
F800
F800
DC00
CE00
C700
C380
C1C0
ENDCHAR
STARTCHAR 006C
ENCODING 108
SWIDTH 227 0
DWIDTH 5 0
BBX 2 16 1 0
BITMAP
C0
C0
C0
C0
C0
C0
C0
C0
C0
C0
C0
C0
C0
C0
C0
C0
ENDCHAR
STARTCHAR 006D
ENCODING 109
SWIDTH 727 0
DWIDTH 16 0
BBX 13 12 1 0
BITMAP
7CF0
7FF8
C318
C318
C318
C318
C318
C318
C318
C318
C318
C318
ENDCHAR
STARTCHAR 006E
ENCODING 110
SWIDTH 545 0
DWIDTH 12 0
BBX 10 12 1 0
BITMAP
3F80
7FC0
C0C0
C0C0
C0C0
C0C0
C0C0
C0C0
C0C0
C0C0
C0C0
C0C0
ENDCHAR
STARTCHAR 006F
ENCODING 111
SWIDTH 545 0
DWIDTH 12 0
BBX 10 12 1 0
BITMAP
7F80
7FC0
E0C0
C0C0
C0C0
C0C0
C0C0
C0C0
C0C0
E0C0
7FC0
3F80
ENDCHAR
STARTCHAR 0070
ENCODING 112
SWIDTH 545 0
DWIDTH 12 0
BBX 10 16 1 -4
BITMAP
3F80
7FC0
E0C0
C0C0
C0C0
C0C0
C0C0
C0C0
C0C0
E0C0
FFC0
FF80
C000
C000
C000
C000
ENDCHAR
STARTCHAR 0071
ENCODING 113
SWIDTH 545 0
DWIDTH 12 0
BBX 10 16 1 -4
BITMAP
3F80
7FC0
C0C0
C0C0
C0C0
C0C0
C0C0
C0C0
C0C0
E0C0
7FC0
3FC0
00C0
00C0
00C0
00C0
ENDCHAR
STARTCHAR 0072
ENCODING 114
SWIDTH 272 0
DWIDTH 6 0
BBX 4 12 1 0
BITMAP
70
70
C0
C0
C0
C0
C0
C0
C0
C0
C0
C0
ENDCHAR
STARTCHAR 0073
ENCODING 115
SWIDTH 500 0
DWIDTH 11 0
BBX 9 12 1 0
BITMAP
7F80
FF80
C000
C000
C000
FF00
7F80
0180
0180
0180
FF80
FF00
ENDCHAR
STARTCHAR 0074
ENCODING 116
SWIDTH 227 0
DWIDTH 5 0
BBX 4 16 1 0
BITMAP
C0
C0
C0
C0
F0
F0
C0
C0
C0
C0
C0
C0
C0
C0
C0
C0
ENDCHAR
STARTCHAR 0075
ENCODING 117
SWIDTH 545 0
DWIDTH 12 0
BBX 10 12 1 0
BITMAP
C0C0
C0C0
C0C0
C0C0
C0C0
C0C0
C0C0
C0C0
C0C0
C0C0
7FC0
3F80
ENDCHAR
STARTCHAR 0076
ENCODING 118
SWIDTH 500 0
DWIDTH 11 0
BBX 11 12 0 0
BITMAP
C060
60E0
60C0
60C0
31C0
3180
3180
1B00
1B00
1B00
0E00
0E00
ENDCHAR
STARTCHAR 0077
ENCODING 119
SWIDTH 727 0
DWIDTH 16 0
BBX 16 12 0 0
BITMAP
C183
63C6
63C6
63C6
63C6
766C
366C
366C
366C
3C3C
1C38
1C38
ENDCHAR
STARTCHAR 0078
ENCODING 120
SWIDTH 500 0
DWIDTH 11 0
BBX 10 12 0 0
BITMAP
E0C0
7180
3380
3B00
1E00
0E00
0E00
1F00
3B00
3180
71C0
E0C0
ENDCHAR
STARTCHAR 0079
ENCODING 121
SWIDTH 545 0
DWIDTH 12 0
BBX 10 16 1 -4
BITMAP
C0C0
C0C0
C0C0
C0C0
C0C0
C0C0
C0C0
C0C0
C0C0
E0C0
7FC0
3FC0
00C0
00C0
FFC0
FF80
ENDCHAR
STARTCHAR 007A
ENCODING 122
SWIDTH 545 0
DWIDTH 12 0
BBX 10 12 1 0
BITMAP
FFC0
FFC0
01C0
0380
0700
0E00
1C00
3800
7000
E000
FFC0
FFC0
ENDCHAR
STARTCHAR 007B
ENCODING 123
SWIDTH 318 0
DWIDTH 7 0
BBX 3 20 2 -2
BITMAP
E0
E0
C0
C0
C0
C0
C0
C0
C0
C0
C0
C0
C0
C0
C0
C0
C0
C0
E0
E0
ENDCHAR
STARTCHAR 007C
ENCODING 124
SWIDTH 227 0
DWIDTH 5 0
BBX 2 16 1 0
BITMAP
C0
C0
C0
C0
C0
C0
C0
C0
C0
C0
C0
C0
C0
C0
C0
C0
ENDCHAR
STARTCHAR 007D
ENCODING 125
SWIDTH 318 0
DWIDTH 7 0
BBX 4 20 1 -2
BITMAP
E0
E0
60
60
60
60
60
60
60
20
30
60
60
60
60
60
60
60
E0
E0
ENDCHAR
STARTCHAR 007E
ENCODING 126
SWIDTH 545 0
DWIDTH 12 0
BBX 10 4 1 3
BITMAP
7000
FCC0
CF80
0300
ENDCHAR
STARTCHAR 00A0
ENCODING 160
SWIDTH 272 0
DWIDTH 6 0
BBX 0 0 0 0
BITMAP
ENDCHAR
STARTCHAR 00A1
ENCODING 161
SWIDTH 227 0
DWIDTH 5 0
BBX 3 16 1 0
BITMAP
C0
C0
00
60
60
60
60
60
60
60
60
60
60
60
60
60
ENDCHAR
STARTCHAR 00A2
ENCODING 162
SWIDTH 454 0
DWIDTH 10 0
BBX 8 15 1 -2
BITMAP
08
3F
7F
E8
C8
C8
C8
C8
C8
C8
E8
7F
3F
08
08
ENDCHAR
STARTCHAR 00A3
ENCODING 163
SWIDTH 590 0
DWIDTH 13 0
BBX 12 15 1 0
BITMAP
0F80
1F80
18C0
18C0
1800
1800
FF00
FF00
1800
1800
1800
3030
7070
FFE0
FFC0
ENDCHAR
STARTCHAR 00A4
ENCODING 164
SWIDTH 545 0
DWIDTH 12 0
BBX 10 10 1 2
BITMAP
FE80
FF80
E380
C1C0
C0C0
C0C0
C1C0
E380
FFC0
1E80
ENDCHAR
STARTCHAR 00A5
ENCODING 165
SWIDTH 545 0
DWIDTH 12 0
BBX 12 16 0 0
BITMAP
C070
6060
60C0
30C0
3980
1B80
7FE0
7FE0
0600
7FE0
7FE0
0600
0600
0600
0600
0600
ENDCHAR
STARTCHAR 00A6
ENCODING 166
SWIDTH 272 0
DWIDTH 6 0
BBX 2 16 2 0
BITMAP
C0
C0
C0
C0
C0
C0
00
00
00
C0
C0
C0
C0
C0
C0
C0
ENDCHAR
STARTCHAR 00A7
ENCODING 167
SWIDTH 545 0
DWIDTH 12 0
BBX 10 20 1 -2
BITMAP
1E00
7F80
6100
6000
6000
7000
7C00
FF00
C780
C1C0
C0C0
F0C0
3D80
0F00
0380
00C0
00C0
6180
7F80
1E00
ENDCHAR
STARTCHAR 00A8
ENCODING 168
SWIDTH 409 0
DWIDTH 9 0
BBX 7 2 2 12
BITMAP
C6
C6
ENDCHAR
STARTCHAR 00A9
ENCODING 169
SWIDTH 772 0
DWIDTH 17 0
BBX 15 16 1 0
BITMAP
3FF8
7FFC
E00E
C006
C7C6
CFC6
CC06
CC06
CC06
CC06
CC06
CFC6
C7C6
E00E
7FFC
3FF8
ENDCHAR
STARTCHAR 00AA
ENCODING 170
SWIDTH 363 0
DWIDTH 8 0
BBX 7 9 1 7
BITMAP
78
FC
1C
3C
DC
FE
F6
FE
FE
ENDCHAR
STARTCHAR 00AB
ENCODING 171
SWIDTH 545 0
DWIDTH 12 0
BBX 8 8 2 2
BITMAP
10
21
42
84
84
42
20
10
ENDCHAR
STARTCHAR 00AC
ENCODING 172
SWIDTH 590 0
DWIDTH 13 0
BBX 11 7 1 2
BITMAP
FFE0
FFE0
0060
0060
0060
0060
0060
ENDCHAR
STARTCHAR 00AD
ENCODING 173
SWIDTH 590 0
DWIDTH 13 0
BBX 11 1 1 5
BITMAP
FFE0
ENDCHAR
STARTCHAR 00AE
ENCODING 174
SWIDTH 772 0
DWIDTH 17 0
BBX 15 16 1 0
BITMAP
3FF8
7FFC
E00E
C006
CFC6
CFE6
CC66
CFE6
CFC6
CE06
CF06
CC86
CC66
E00E
7FFC
3FF8
ENDCHAR
STARTCHAR 00AF
ENCODING 175
SWIDTH 454 0
DWIDTH 10 0
BBX 7 1 2 13
BITMAP
FE
ENDCHAR
STARTCHAR 00B0
ENCODING 176
SWIDTH 409 0
DWIDTH 9 0
BBX 6 7 1 9
BITMAP
38
7C
CC
CC
CC
7C
38
ENDCHAR
STARTCHAR 00B1
ENCODING 177
SWIDTH 590 0
DWIDTH 13 0
BBX 11 11 1 0
BITMAP
0C00
0C00
0C00
FFE0
FFE0
0C00
0C00
0C00
0C00
FFE0
FFE0
ENDCHAR
STARTCHAR 00B4
ENCODING 180
SWIDTH 363 0
DWIDTH 8 0
BBX 4 4 2 11
BITMAP
20
30
60
C0
ENDCHAR
STARTCHAR 00B5
ENCODING 181
SWIDTH 454 0
DWIDTH 10 0
BBX 8 15 1 -5
BITMAP
C3
C3
C3
C3
C3
C3
C3
E3
FF
FE
C0
C0
C0
C0
C0
ENDCHAR
STARTCHAR 00B6
ENCODING 182
SWIDTH 545 0
DWIDTH 12 0
BBX 11 20 0 -4
BITMAP
1FE0
7FE0
7C60
FC60
FC60
7C60
7C60
3C60
0C60
0C60
0C60
0C60
0C60
0C60
0C60
0C60
0C60
0C60
0C60
0C60
ENDCHAR
STARTCHAR 00B7
ENCODING 183
SWIDTH 227 0
DWIDTH 5 0
BBX 2 3 2 4
BITMAP
40
C0
C0
ENDCHAR
STARTCHAR 00B8
ENCODING 184
SWIDTH 409 0
DWIDTH 9 0
BBX 2 4 4 -4
BITMAP
40
C0
80
80
ENDCHAR
STARTCHAR 00BA
ENCODING 186
SWIDTH 363 0
DWIDTH 8 0
BBX 7 9 1 7
BITMAP
78
FC
CC
C6
CC
FC
78
FE
FE
ENDCHAR
STARTCHAR 00BB
ENCODING 187
SWIDTH 545 0
DWIDTH 12 0
BBX 8 6 2 3
BITMAP
84
43
31
21
42
84
ENDCHAR
STARTCHAR 00BF
ENCODING 191
SWIDTH 500 0
DWIDTH 11 0
BBX 10 16 0 0
BITMAP
0100
0100
0000
0300
0300
0300
0300
1F00
7F00
7F00
E000
E000
E000
E000
7FC0
3FC0
ENDCHAR
STARTCHAR 00C0
ENCODING 192
SWIDTH 636 0
DWIDTH 14 0
BBX 13 22 0 0
BITMAP
0800
0C00
0600
0200
0000
0000
0300
0700
0780
0F80
0DC0
0CC0
18C0
18E0
1860
3060
3070
7FF0
7FF0
6018
C018
C018
ENDCHAR
STARTCHAR 00C1
ENCODING 193
SWIDTH 636 0
DWIDTH 14 0
BBX 14 22 0 0
BITMAP
0100
0380
0300
0400
0000
0000
0300
0780
0780
0780
0DC0
0CC0
1CC0
1860
1860
3860
3030
3FF0
7FF8
6018
6018
C01C
ENDCHAR
STARTCHAR 00C2
ENCODING 194
SWIDTH 636 0
DWIDTH 14 0
BBX 14 22 0 0
BITMAP
0600
0F00
1980
0180
0000
0000
0300
0780
0780
0780
0DC0
0CC0
1CC0
1860
1860
3860
3030
3FF0
7FF8
6018
6018
C01C
ENDCHAR
STARTCHAR 00C3
ENCODING 195
SWIDTH 636 0
DWIDTH 14 0
BBX 14 20 0 1
BITMAP
0FC0
1FC0
0000
0000
0300
0780
0780
0780
0DC0
0CC0
1CC0
1860
1860
3860
3030
3FF0
7FF8
6018
6018
C01C
ENDCHAR
STARTCHAR 00C4
ENCODING 196
SWIDTH 636 0
DWIDTH 14 0
BBX 14 20 0 0
BITMAP
18C0
18C0
0000
0000
0300
0780
0780
0780
0DC0
0CC0
1CC0
1860
1860
3860
3030
3FF0
7FF8
6018
6018
C01C
ENDCHAR
STARTCHAR 00C5
ENCODING 197
SWIDTH 636 0
DWIDTH 14 0
BBX 14 22 0 0
BITMAP
0600
0900
0900
0600
0000
0000
0300
0780
0780
0780
0DC0
0CC0
1CC0
1860
1860
3860
3030
3FF0
7FF8
6018
6018
C01C
ENDCHAR
STARTCHAR 00C6
ENCODING 198
SWIDTH 954 0
DWIDTH 21 0
BBX 20 16 0 0
BITMAP
00FF80
00FF80
00E000
00E000
01E000
03E000
033000
063FC0
0E3FC0
0C3800
1FF800
1FF800
301800
700C00
600FF0
C00FF0
ENDCHAR
STARTCHAR 00C7
ENCODING 199
SWIDTH 727 0
DWIDTH 16 0
BBX 14 21 1 -5
BITMAP
0FC0
1FF0
3838
6018
600C
C000
C000
C000
C000
C000
C00C
E01C
6018
7838
3FF0
1FE0
0200
0700
0180
0780
0F00
ENDCHAR
STARTCHAR 00C8
ENCODING 200
SWIDTH 590 0
DWIDTH 13 0
BBX 10 22 1 0
BITMAP
0400
0E00
0600
0100
0000
0000
3FC0
7FC0
6000
C000
C000
C000
C000
FFC0
FFC0
C000
C000
C000
C000
6000
7FC0
3FC0
ENDCHAR
STARTCHAR 00C9
ENCODING 201
SWIDTH 590 0
DWIDTH 13 0
BBX 10 22 1 0
BITMAP
0100
0380
0300
0400
0000
0000
3FC0
7FC0
C000
C000
C000
C000
C000
FFC0
FFC0
C000
C000
C000
C000
C000
7FC0
3FC0
ENDCHAR
STARTCHAR 00CA
ENCODING 202
SWIDTH 590 0
DWIDTH 13 0
BBX 10 22 1 0
BITMAP
0600
0F00
1980
0180
0000
0000
3FC0
7FC0
C000
C000
C000
C000
C000
FFC0
FFC0
C000
C000
C000
C000
C000
7FC0
3FC0
ENDCHAR
STARTCHAR 00CB
ENCODING 203
SWIDTH 590 0
DWIDTH 13 0
BBX 10 20 1 0
BITMAP
3180
3180
0000
0000
3FC0
7FC0
C000
C000
C000
C000
C000
FFC0
FFC0
C000
C000
C000
C000
C000
7FC0
3FC0
ENDCHAR
STARTCHAR 00CC
ENCODING 204
SWIDTH 272 0
DWIDTH 6 0
BBX 3 22 2 0
BITMAP
80
C0
60
20
00
00
60
60
60
60
60
60
60
60
60
60
60
60
60
60
60
60
ENDCHAR
STARTCHAR 00CD
ENCODING 205
SWIDTH 272 0
DWIDTH 6 0
BBX 4 22 1 0
BITMAP
20
70
60
80
00
00
C0
C0
C0
C0
C0
C0
C0
C0
C0
C0
C0
C0
C0
C0
C0
C0
ENDCHAR
STARTCHAR 00CE
ENCODING 206
SWIDTH 272 0
DWIDTH 6 0
BBX 6 22 0 0
BITMAP
30
78
CC
0C
00
00
60
60
60
60
60
60
60
60
60
60
60
60
60
60
60
60
ENDCHAR
STARTCHAR 00CF
ENCODING 207
SWIDTH 272 0
DWIDTH 6 0
BBX 7 21 -1 0
BITMAP
C6
C6
00
00
00
30
30
30
30
30
30
30
30
30
30
30
30
30
30
30
30
ENDCHAR
STARTCHAR 00D0
ENCODING 208
SWIDTH 727 0
DWIDTH 16 0
BBX 15 16 0 0
BITMAP
3FE0
3FF8
3038
300C
300E
3006
3006
FF06
FF06
3006
3006
300C
300C
3038
3FF8
3FE0
ENDCHAR
STARTCHAR 00D1
ENCODING 209
SWIDTH 636 0
DWIDTH 14 0
BBX 11 21 1 0
BITMAP
3F00
7F00
0000
0000
0000
E060
E060
F060
F060
F860
D860
D860
CC60
CC60
C660
C660
C360
C360
C3E0
C1E0
C0C0
ENDCHAR
STARTCHAR 00D2
ENCODING 210
SWIDTH 636 0
DWIDTH 14 0
BBX 11 22 1 0
BITMAP
0400
0E00
0300
0100
0000
0000
3F80
7FE0
6060
C060
C060
C060
C060
C060
C060
C060
C060
C060
C060
6060
7FE0
1F80
ENDCHAR
STARTCHAR 00D3
ENCODING 211
SWIDTH 636 0
DWIDTH 14 0
BBX 11 20 1 0
BITMAP
0080
01C0
0180
0200
3F80
7FC0
C060
C060
C060
C060
C060
C060
C060
C060
C060
C060
C060
C060
7FC0
3F80
ENDCHAR
STARTCHAR 00D4
ENCODING 212
SWIDTH 636 0
DWIDTH 14 0
BBX 11 22 1 0
BITMAP
0600
0F00
1980
0180
0000
0000
3F80
7FC0
C060
C060
C060
C060
C060
C060
C060
C060
C060
C060
C060
C060
7FC0
3F80
ENDCHAR
STARTCHAR 00D5
ENCODING 213
SWIDTH 636 0
DWIDTH 14 0
BBX 11 20 1 1
BITMAP
1F80
3F80
0000
0000
3F80
7FC0
C060
C060
C060
C060
C060
C060
C060
C060
C060
C060
C060
C060
7FC0
3F80
ENDCHAR
STARTCHAR 00D6
ENCODING 214
SWIDTH 636 0
DWIDTH 14 0
BBX 11 20 1 0
BITMAP
3180
3180
0000
0000
3F80
7FC0
C060
C060
C060
C060
C060
C060
C060
C060
C060
C060
C060
C060
7FC0
3F80
ENDCHAR
STARTCHAR 00D7
ENCODING 215
SWIDTH 590 0
DWIDTH 13 0
BBX 11 11 1 0
BITMAP
C000
6040
3080
1900
0E00
0600
0B00
1180
20C0
4060
8000
ENDCHAR
STARTCHAR 00D8
ENCODING 216
SWIDTH 772 0
DWIDTH 17 0
BBX 15 16 1 1
BITMAP
07E2
1FF4
3838
700C
601C
C026
C046
C086
C106
C206
C20E
E40C
781C
7838
7FF0
8FC0
ENDCHAR
STARTCHAR 00D9
ENCODING 217
SWIDTH 636 0
DWIDTH 14 0
BBX 11 22 1 0
BITMAP
0800
0C00
0600
0200
0000
0000
C060
C060
C060
C060
C060
C060
C060
C060
C060
C060
C060
C060
C060
6060
7FE0
3FC0
ENDCHAR
STARTCHAR 00DA
ENCODING 218
SWIDTH 636 0
DWIDTH 14 0
BBX 11 19 1 0
BITMAP
0100
0380
0300
C460
C060
C060
C060
C060
C060
C060
C060
C060
C060
C060
C060
C060
C060
7FC0
3F80
ENDCHAR
STARTCHAR 00DB
ENCODING 219
SWIDTH 636 0
DWIDTH 14 0
BBX 11 22 1 0
BITMAP
0C00
1E00
3300
0300
0000
0000
C060
C060
C060
C060
C060
C060
C060
C060
C060
C060
C060
C060
C060
C060
7FC0
3F80
ENDCHAR
STARTCHAR 00DC
ENCODING 220
SWIDTH 636 0
DWIDTH 14 0
BBX 11 20 1 0
BITMAP
3180
3180
0000
0000
C060
C060
C060
C060
C060
C060
C060
C060
C060
C060
C060
C060
C060
C060
7FC0
3F80
ENDCHAR
STARTCHAR 00DD
ENCODING 221
SWIDTH 590 0
DWIDTH 13 0
BBX 13 22 0 0
BITMAP
0100
0380
0300
0400
0000
0000
E018
6030
7070
3060
38C0
19C0
1D80
0F00
0700
0600
0600
0600
0600
0600
0600
0600
ENDCHAR
STARTCHAR 00DE
ENCODING 222
SWIDTH 681 0
DWIDTH 15 0
BBX 12 16 2 0
BITMAP
C000
C000
C000
FFC0
FFE0
C060
C030
C030
C030
C060
FFE0
FFC0
C000
C000
C000
C000
ENDCHAR
STARTCHAR 00DF
ENCODING 223
SWIDTH 545 0
DWIDTH 12 0
BBX 10 18 1 -1
BITMAP
1E00
7F00
6180
6180
E180
C180
C380
C700
C780
C1C0
C0C0
C0C0
C0C0
C0C0
C0C0
C1C0
C780
C600
ENDCHAR
STARTCHAR 00E0
ENCODING 224
SWIDTH 545 0
DWIDTH 12 0
BBX 10 17 1 0
BITMAP
1000
1800
0C00
0400
0000
FF80
FFC0
00C0
00C0
3FC0
7FC0
E0C0
C0C0
C0C0
C0C0
7FC0
3F80
ENDCHAR
STARTCHAR 00E1
ENCODING 225
SWIDTH 545 0
DWIDTH 12 0
BBX 10 17 1 0
BITMAP
0200
0700
0600
0800
0000
FF80
FFC0
00C0
00C0
7FC0
FFC0
C0C0
C0C0
C0C0
C0C0
FFC0
7F80
ENDCHAR
STARTCHAR 00E2
ENCODING 226
SWIDTH 545 0
DWIDTH 12 0
BBX 10 17 1 0
BITMAP
0C00
1E00
3300
0300
0000
FF80
FFC0
00C0
00C0
7FC0
FFC0
C0C0
C0C0
C0C0
C0C0
FFC0
7F80
ENDCHAR
STARTCHAR 00E3
ENCODING 227
SWIDTH 545 0
DWIDTH 12 0
BBX 10 16 1 1
BITMAP
3F00
7F00
0000
0000
FF80
FFC0
00C0
00C0
7FC0
FFC0
C0C0
C0C0
C0C0
C0C0
FFC0
7F80
ENDCHAR
STARTCHAR 00E4
ENCODING 228
SWIDTH 545 0
DWIDTH 12 0
BBX 10 15 1 0
BITMAP
6300
6300
0000
FF80
FFC0
00C0
00C0
7FC0
FFC0
C0C0
C0C0
C0C0
C0C0
FFC0
7F80
ENDCHAR
STARTCHAR 00E5
ENCODING 229
SWIDTH 545 0
DWIDTH 12 0
BBX 10 17 1 0
BITMAP
0C00
1200
1200
0C00
0000
FF80
FFC0
00C0
00C0
7FC0
FFC0
C0C0
C0C0
C0C0
C0C0
FFC0
7F80
ENDCHAR
STARTCHAR 00E6
ENCODING 230
SWIDTH 909 0
DWIDTH 20 0
BBX 18 12 1 0
BITMAP
3E1E00
7FFF00
61E180
C0C180
00C080
1FFFC0
7EFFC0
C0C000
C0C080
C3E180
FFFF00
7C3E00
ENDCHAR
STARTCHAR 00E7
ENCODING 231
SWIDTH 500 0
DWIDTH 11 0
BBX 9 17 1 -5
BITMAP
1E00
7F80
6180
C180
C000
C000
C000
C000
C180
C180
6380
3F00
1800
1C00
0600
3E00
3C00
ENDCHAR
STARTCHAR 00E8
ENCODING 232
SWIDTH 545 0
DWIDTH 12 0
BBX 10 17 1 0
BITMAP
1000
1800
0C00
0400
0000
3F80
7F80
E0C0
C0C0
C3C0
CF00
FC00
F000
C000
E000
7FC0
3FC0
ENDCHAR
STARTCHAR 00E9
ENCODING 233
SWIDTH 545 0
DWIDTH 12 0
BBX 10 17 1 0
BITMAP
0200
0700
0600
0800
0000
7F00
FF80
C180
C080
C380
DF00
FC00
F000
C000
C000
FFC0
7FC0
ENDCHAR
STARTCHAR 00EA
ENCODING 234
SWIDTH 545 0
DWIDTH 12 0
BBX 10 17 1 0
BITMAP
0C00
1E00
3300
0300
0000
7F00
FF80
C180
C080
C380
DF00
FC00
F000
C000
C000
FFC0
7FC0
ENDCHAR
STARTCHAR 00EB
ENCODING 235
SWIDTH 545 0
DWIDTH 12 0
BBX 10 15 1 0
BITMAP
6300
6300
0000
7F00
FF80
C180
C080
C380
DF00
FC00
F000
C000
C000
FFC0
7FC0
ENDCHAR
STARTCHAR 00EC
ENCODING 236
SWIDTH 272 0
DWIDTH 6 0
BBX 3 17 2 0
BITMAP
80
C0
60
20
00
00
00
60
60
60
60
60
60
60
60
60
60
ENDCHAR
STARTCHAR 00ED
ENCODING 237
SWIDTH 272 0
DWIDTH 6 0
BBX 5 17 1 0
BITMAP
10
38
30
40
00
00
00
C0
C0
C0
C0
C0
C0
C0
C0
C0
C0
ENDCHAR
STARTCHAR 00EE
ENCODING 238
SWIDTH 272 0
DWIDTH 6 0
BBX 6 17 0 0
BITMAP
30
78
CC
0C
00
00
00
60
60
60
60
60
60
60
60
60
60
ENDCHAR
STARTCHAR 00EF
ENCODING 239
SWIDTH 272 0
DWIDTH 6 0
BBX 7 16 -1 0
BITMAP
C6
C6
00
00
00
00
30
30
30
30
30
30
30
30
30
30
ENDCHAR
STARTCHAR 00F0
ENCODING 240
SWIDTH 545 0
DWIDTH 12 0
BBX 11 16 1 0
BITMAP
1980
0E00
1F00
2380
1F80
7FC0
61C0
C0E0
C060
C060
C060
C060
C0C0
61C0
7F80
1F00
ENDCHAR
STARTCHAR 00F1
ENCODING 241
SWIDTH 545 0
DWIDTH 12 0
BBX 10 16 1 1
BITMAP
3F00
7F00
0000
0000
7F80
FFC0
C0C0
C0C0
C0C0
C0C0
C0C0
C0C0
C0C0
C0C0
C0C0
C0C0
ENDCHAR
STARTCHAR 00F2
ENCODING 242
SWIDTH 545 0
DWIDTH 12 0
BBX 10 17 1 0
BITMAP
1000
1800
0C00
0400
0000
7F80
7FC0
E0C0
C0C0
C0C0
C0C0
C0C0
C0C0
C0C0
E0C0
7FC0
3F80
ENDCHAR
STARTCHAR 00F3
ENCODING 243
SWIDTH 545 0
DWIDTH 12 0
BBX 10 17 1 0
BITMAP
0200
0700
0600
0800
0000
7F80
FFC0
C0C0
C0C0
C0C0
C0C0
C0C0
C0C0
C0C0
C0C0
FFC0
7F80
ENDCHAR
STARTCHAR 00F4
ENCODING 244
SWIDTH 545 0
DWIDTH 12 0
BBX 10 17 1 0
BITMAP
0C00
1E00
3300
0300
0000
7F80
FFC0
C0C0
C0C0
C0C0
C0C0
C0C0
C0C0
C0C0
C0C0
FFC0
7F80
ENDCHAR
STARTCHAR 00F5
ENCODING 245
SWIDTH 545 0
DWIDTH 12 0
BBX 10 16 1 1
BITMAP
3F00
7F00
0000
0000
7F80
FFC0
C0C0
C0C0
C0C0
C0C0
C0C0
C0C0
C0C0
C0C0
FFC0
7F80
ENDCHAR
STARTCHAR 00F6
ENCODING 246
SWIDTH 545 0
DWIDTH 12 0
BBX 10 15 1 0
BITMAP
6300
6300
0000
7F80
FFC0
C0C0
C0C0
C0C0
C0C0
C0C0
C0C0
C0C0
C0C0
FFC0
7F80
ENDCHAR
STARTCHAR 00F7
ENCODING 247
SWIDTH 636 0
DWIDTH 14 0
BBX 12 10 1 3
BITMAP
0600
0600
0000
0000
FFF0
FFF0
0000
0000
0600
0600
ENDCHAR
STARTCHAR 00F8
ENCODING 248
SWIDTH 590 0
DWIDTH 13 0
BBX 12 12 0 0
BITMAP
0F10
3FE0
70C0
60E0
6160
6230
6430
6C60
7860
70E0
7FC0
CF80
ENDCHAR
STARTCHAR 00F9
ENCODING 249
SWIDTH 545 0
DWIDTH 12 0
BBX 10 17 1 0
BITMAP
1000
1800
0C00
0400
0000
C0C0
C0C0
C0C0
C0C0
C0C0
C0C0
C0C0
C0C0
C0C0
C0C0
7FC0
3F80
ENDCHAR
STARTCHAR 00FA
ENCODING 250
SWIDTH 545 0
DWIDTH 12 0
BBX 10 17 1 0
BITMAP
0200
0700
0600
0800
0000
C0C0
C0C0
C0C0
C0C0
C0C0
C0C0
C0C0
C0C0
C0C0
C0C0
FFC0
7F80
ENDCHAR
STARTCHAR 00FB
ENCODING 251
SWIDTH 545 0
DWIDTH 12 0
BBX 10 17 1 0
BITMAP
0C00
1E00
3300
0300
0000
C0C0
C0C0
C0C0
C0C0
C0C0
C0C0
C0C0
C0C0
C0C0
C0C0
FFC0
7F80
ENDCHAR
STARTCHAR 00FC
ENCODING 252
SWIDTH 545 0
DWIDTH 12 0
BBX 10 15 1 0
BITMAP
6300
6300
0000
C0C0
C0C0
C0C0
C0C0
C0C0
C0C0
C0C0
C0C0
C0C0
C0C0
FFC0
7F80
ENDCHAR
STARTCHAR 00FD
ENCODING 253
SWIDTH 545 0
DWIDTH 12 0
BBX 10 21 1 -4
BITMAP
0200
0700
0600
0800
0000
C0C0
C0C0
C0C0
C0C0
C0C0
C0C0
C0C0
C0C0
C0C0
C0C0
FFC0
7FC0
00C0
00C0
FFC0
FF80
ENDCHAR
STARTCHAR 00FE
ENCODING 254
SWIDTH 545 0
DWIDTH 12 0
BBX 10 21 1 -5
BITMAP
C000
C000
C000
C000
CF00
DF80
F1C0
E0C0
C0C0
C0C0
C0C0
C0C0
E0C0
F180
FF80
DF00
C000
C000
C000
C000
C000
ENDCHAR
STARTCHAR 00FF
ENCODING 255
SWIDTH 590 0
DWIDTH 13 0
BBX 10 20 1 -4
BITMAP
3180
3180
0000
0000
C0C0
C0C0
C0C0
C0C0
C0C0
C0C0
C0C0
C0C0
C0C0
C0C0
FFC0
7FC0
00C0
00C0
FFC0
FF80
ENDCHAR
STARTCHAR 0131
ENCODING 305
SWIDTH 227 0
DWIDTH 5 0
BBX 2 10 1 0
BITMAP
C0
C0
C0
C0
C0
C0
C0
C0
C0
C0
ENDCHAR
STARTCHAR 0141
ENCODING 321
SWIDTH 545 0
DWIDTH 12 0
BBX 12 16 0 0
BITMAP
3000
3000
3000
3000
3000
3600
3800
7000
B000
3000
3000
3000
3000
3000
3FF0
3FF0
ENDCHAR
STARTCHAR 0142
ENCODING 322
SWIDTH 227 0
DWIDTH 5 0
BBX 6 16 0 0
BITMAP
30
30
30
30
30
34
38
70
B0
30
30
30
30
30
30
30
ENDCHAR
STARTCHAR 0152
ENCODING 338
SWIDTH 1000 0
DWIDTH 22 0
BBX 20 16 1 0
BITMAP
0FBFF0
3FFFF0
707800
603800
C01800
C01800
C01800
C01FF0
C01FF0
C01800
C01800
C01800
603800
707800
3FFFF0
0FBFF0
ENDCHAR
STARTCHAR 0153
ENCODING 339
SWIDTH 954 0
DWIDTH 21 0
BBX 19 12 1 0
BITMAP
1E0F00
7FBF80
61F0C0
C0E040
C06060
C07FE0
C07FE0
C06000
C0E060
61F0C0
7FBFC0
1F1F00
ENDCHAR
STARTCHAR 0160
ENCODING 352
SWIDTH 545 0
DWIDTH 12 0
BBX 10 21 1 0
BITMAP
1880
0D00
0600
0000
0000
3FC0
7FC0
C000
C000
C000
C000
C000
7F00
3FC0
00C0
00C0
00C0
00C0
00C0
FF80
FF00
ENDCHAR
STARTCHAR 0161
ENCODING 353
SWIDTH 500 0
DWIDTH 11 0
BBX 9 17 1 0
BITMAP
3100
1A00
0C00
0000
0000
7F80
FF80
C000
C000
C000
FF00
7F80
0180
0180
0180
FF80
FF00
ENDCHAR
STARTCHAR 0178
ENCODING 376
SWIDTH 590 0
DWIDTH 13 0
BBX 13 20 0 0
BITMAP
18C0
18C0
0000
0000
E018
6030
7070
3060
38C0
19C0
1D80
0F00
0700
0600
0600
0600
0600
0600
0600
0600
ENDCHAR
STARTCHAR 017D
ENCODING 381
SWIDTH 545 0
DWIDTH 12 0
BBX 10 21 0 0
BITMAP
0C40
0680
0300
0000
0000
FFC0
FFC0
01C0
0180
0300
0700
0600
0C00
1C00
1800
3000
7000
6000
C000
FFC0
7FC0
ENDCHAR
STARTCHAR 017E
ENCODING 382
SWIDTH 545 0
DWIDTH 12 0
BBX 10 17 1 0
BITMAP
3100
1A00
0C00
0000
0000
FFC0
FFC0
01C0
0380
0700
0E00
1C00
3800
7000
E000
FFC0
FFC0
ENDCHAR
STARTCHAR 0192
ENCODING 402
SWIDTH 545 0
DWIDTH 12 0
BBX 11 21 0 -5
BITMAP
00E0
03E0
0300
0300
0600
0600
1FC0
1FC0
0600
0600
0C00
0C00
0C00
0C00
0C00
1800
1800
1800
3800
F000
E000
ENDCHAR
STARTCHAR 02C6
ENCODING 710
SWIDTH 454 0
DWIDTH 10 0
BBX 5 4 3 11
BITMAP
20
70
98
08
ENDCHAR
STARTCHAR 02C7
ENCODING 711
SWIDTH 363 0
DWIDTH 8 0
BBX 6 3 1 11
BITMAP
84
68
30
ENDCHAR
STARTCHAR 02C9
ENCODING 713
SWIDTH 454 0
DWIDTH 10 0
BBX 7 1 2 13
BITMAP
FE
ENDCHAR
STARTCHAR 02D8
ENCODING 728
SWIDTH 500 0
DWIDTH 11 0
BBX 6 2 3 12
BITMAP
FC
78
ENDCHAR
STARTCHAR 02D9
ENCODING 729
SWIDTH 409 0
DWIDTH 9 0
BBX 2 2 4 12
BITMAP
C0
C0
ENDCHAR
STARTCHAR 02DA
ENCODING 730
SWIDTH 454 0
DWIDTH 10 0
BBX 3 4 4 11
BITMAP
E0
A0
A0
E0
ENDCHAR
STARTCHAR 02DB
ENCODING 731
SWIDTH 227 0
DWIDTH 5 0
BBX 4 4 0 -4
BITMAP
40
C0
F0
70
ENDCHAR
STARTCHAR 02DC
ENCODING 732
SWIDTH 500 0
DWIDTH 11 0
BBX 7 2 2 12
BITMAP
7E
FC
ENDCHAR
STARTCHAR 02DD
ENCODING 733
SWIDTH 545 0
DWIDTH 12 0
BBX 7 4 3 11
BITMAP
64
66
8C
10
ENDCHAR
STARTCHAR 0394
ENCODING 916
SWIDTH 636 0
DWIDTH 14 0
BBX 14 16 0 0
BITMAP
0100
0100
0300
0380
0580
04C0
0CC0
08C0
0860
1060
1030
2030
2030
4018
7FF8
FFFC
ENDCHAR
STARTCHAR 03A9
ENCODING 937
SWIDTH 818 0
DWIDTH 18 0
BBX 16 16 1 0
BITMAP
07E0
1818
600C
6006
C006
C003
C003
C003
C003
C006
6006
300C
1C71
8461
FE7F
FE7F
ENDCHAR
STARTCHAR 03BC
ENCODING 956
SWIDTH 454 0
DWIDTH 10 0
BBX 8 15 1 -5
BITMAP
C3
C3
C3
C3
C3
C3
C3
E3
FF
FE
C0
C0
C0
C0
C0
ENDCHAR
STARTCHAR 03C0
ENCODING 960
SWIDTH 590 0
DWIDTH 13 0
BBX 11 11 1 0
BITMAP
7FE0
FFE0
1100
3300
3300
3300
3300
2300
63A0
E1E0
61C0
ENDCHAR
STARTCHAR 2010
ENCODING 8208
SWIDTH 318 0
DWIDTH 7 0
BBX 6 2 1 5
BITMAP
FC
FC
ENDCHAR
STARTCHAR 2013
ENCODING 8211
SWIDTH 636 0
DWIDTH 14 0
BBX 12 3 1 6
BITMAP
FFF0
FFF0
FFF0
ENDCHAR
STARTCHAR 2014
ENCODING 8212
SWIDTH 500 0
DWIDTH 11 0
BBX 9 2 1 5
BITMAP
FF80
FF80
ENDCHAR
STARTCHAR 2018
ENCODING 8216
SWIDTH 181 0
DWIDTH 4 0
BBX 2 5 2 11
BITMAP
80
80
80
C0
80
ENDCHAR
STARTCHAR 2019
ENCODING 8217
SWIDTH 181 0
DWIDTH 4 0
BBX 2 5 1 11
BITMAP
80
C0
80
80
80
ENDCHAR
STARTCHAR 201A
ENCODING 8218
SWIDTH 227 0
DWIDTH 5 0
BBX 2 5 1 -3
BITMAP
C0
C0
C0
C0
C0
ENDCHAR
STARTCHAR 201C
ENCODING 8220
SWIDTH 318 0
DWIDTH 7 0
BBX 5 5 1 11
BITMAP
48
C8
98
D8
98
ENDCHAR
STARTCHAR 201D
ENCODING 8221
SWIDTH 318 0
DWIDTH 7 0
BBX 6 5 1 11
BITMAP
08
CC
C8
58
90
ENDCHAR
STARTCHAR 201E
ENCODING 8222
SWIDTH 409 0
DWIDTH 9 0
BBX 6 6 1 -3
BITMAP
CC
CC
CC
CC
CC
08
ENDCHAR
STARTCHAR 2020
ENCODING 8224
SWIDTH 545 0
DWIDTH 12 0
BBX 10 20 1 -4
BITMAP
0C00
0C00
0C00
0C00
0C00
FFC0
FFC0
0C00
0C00
0C00
0C00
0C00
0C00
0C00
0C00
0C00
0C00
0C00
0C00
0C00
ENDCHAR
STARTCHAR 2021
ENCODING 8225
SWIDTH 545 0
DWIDTH 12 0
BBX 10 20 1 -4
BITMAP
0C00
0C00
0C00
0C00
0C00
FFC0
FFC0
0C00
0C00
0C00
0C00
0C00
0C00
FFC0
FFC0
0C00
0C00
0C00
0C00
0C00
ENDCHAR
STARTCHAR 2022
ENCODING 8226
SWIDTH 363 0
DWIDTH 8 0
BBX 6 6 1 5
BITMAP
78
FC
FC
FC
FC
78
ENDCHAR
STARTCHAR 2026
ENCODING 8230
SWIDTH 727 0
DWIDTH 16 0
BBX 12 2 2 0
BITMAP
C630
C630
ENDCHAR
STARTCHAR 2030
ENCODING 8240
SWIDTH 1000 0
DWIDTH 22 0
BBX 22 16 0 0
BITMAP
003000
382000
7E6000
E64000
C68000
E68000
7F0000
390000
020000
0270F0
04FDF8
0D8F8C
098F0C
19CF8C
10FDF8
2070F0
ENDCHAR
STARTCHAR 2039
ENCODING 8249
SWIDTH 318 0
DWIDTH 7 0
BBX 3 6 2 3
BITMAP
20
C0
80
80
40
20
ENDCHAR
STARTCHAR 203A
ENCODING 8250
SWIDTH 318 0
DWIDTH 7 0
BBX 3 8 2 2
BITMAP
80
C0
60
20
20
60
C0
80
ENDCHAR
STARTCHAR 2044
ENCODING 8260
SWIDTH 136 0
DWIDTH 3 0
BBX 9 16 -3 0
BITMAP
0080
0080
0100
0100
0200
0600
0400
0C00
0800
1000
1000
2000
6000
4000
C000
8000
ENDCHAR
STARTCHAR 2122
ENCODING 8482
SWIDTH 863 0
DWIDTH 19 0
BBX 18 11 0 5
BITMAP
FFC040
FFC0C0
18E0C0
18E1C0
18E1C0
18D1C0
18D2C0
18CAC0
18CAC0
18C4C0
000400
ENDCHAR
STARTCHAR 2126
ENCODING 8486
SWIDTH 818 0
DWIDTH 18 0
BBX 16 16 1 0
BITMAP
07E0
1818
600C
6006
C006
C003
C003
C003
C003
C006
6006
300C
1C71
8461
FE7F
FE7F
ENDCHAR
STARTCHAR 2202
ENCODING 8706
SWIDTH 500 0
DWIDTH 11 0
BBX 10 17 1 0
BITMAP
7C00
7E00
0300
0180
0180
0180
00C0
00C0
3DC0
63C0
C180
C180
C180
C180
C300
4600
3C00
ENDCHAR
STARTCHAR 2206
ENCODING 8710
SWIDTH 636 0
DWIDTH 14 0
BBX 14 16 0 0
BITMAP
0100
0100
0300
0380
0580
04C0
0CC0
08C0
0860
1060
1030
2030
2030
4018
7FF8
FFFC
ENDCHAR
STARTCHAR 220F
ENCODING 8719
SWIDTH 863 0
DWIDTH 19 0
BBX 18 19 1 -2
BITMAP
FFFF80
7FFF00
300300
300300
300300
300300
300300
300300
300300
300300
300300
300300
300300
300300
300300
300300
300300
700700
FC0FC0
ENDCHAR
STARTCHAR 2211
ENCODING 8721
SWIDTH 727 0
DWIDTH 16 0
BBX 16 19 0 -3
BITMAP
FFFC
7FFC
3804
1C00
0C00
0600
0300
0380
01C0
00C0
0080
0180
0300
0200
0401
0801
1002
3FFE
7FFE
ENDCHAR
STARTCHAR 2212
ENCODING 8722
SWIDTH 590 0
DWIDTH 13 0
BBX 11 1 1 5
BITMAP
FFE0
ENDCHAR
STARTCHAR 2219
ENCODING 8729
SWIDTH 227 0
DWIDTH 5 0
BBX 2 3 2 4
BITMAP
40
C0
C0
ENDCHAR
STARTCHAR 221A
ENCODING 8730
SWIDTH 590 0
DWIDTH 13 0
BBX 11 21 1 0
BITMAP
0020
0020
0040
0040
0040
0040
0040
0040
0080
2080
F080
3080
1880
1880
0C80
0D00
0700
0700
0300
0300
0100
ENDCHAR
STARTCHAR 221E
ENCODING 8734
SWIDTH 727 0
DWIDTH 16 0
BBX 15 6 1 3
BITMAP
7878
FCFC
C30E
C78E
FCFC
7878
ENDCHAR
STARTCHAR 222B
ENCODING 8747
SWIDTH 272 0
DWIDTH 6 0
BBX 7 23 0 -2
BITMAP
0C
1E
10
30
30
30
30
30
30
30
30
30
30
30
30
30
30
30
30
30
30
A0
E0
ENDCHAR
STARTCHAR 2248
ENCODING 8776
SWIDTH 590 0
DWIDTH 13 0
BBX 11 6 1 3
BITMAP
7820
E7C0
0000
6000
FFE0
83C0
ENDCHAR
STARTCHAR 2260
ENCODING 8800
SWIDTH 590 0
DWIDTH 13 0
BBX 12 13 0 -1
BITMAP
0040
00C0
0080
0100
FFF0
FFF0
0200
0400
FFF0
FFF0
0800
1000
3000
ENDCHAR
STARTCHAR 2264
ENCODING 8804
SWIDTH 590 0
DWIDTH 13 0
BBX 11 15 1 0
BITMAP
0020
00C0
0300
0C00
3000
C000
8000
6000
1800
0600
0180
0060
0000
FFE0
FFE0
ENDCHAR
STARTCHAR 2265
ENCODING 8805
SWIDTH 590 0
DWIDTH 13 0
BBX 11 15 1 0
BITMAP
8000
E000
3800
0E00
0380
00E0
0020
00C0
0300
1C00
7000
8000
0000
FFE0
FFE0
ENDCHAR
STARTCHAR 22F2
ENCODING 8946
SWIDTH 590 0
DWIDTH 13 0
BBX 11 6 1 3
BITMAP
7820
E7C0
0000
6000
FFE0
83C0
ENDCHAR
STARTCHAR 25CA
ENCODING 9674
SWIDTH 500 0
DWIDTH 11 0
BBX 11 17 0 0
BITMAP
0600
0A00
0B00
1100
3180
2080
6040
4040
C060
4040
20C0
2080
1180
1100
0B00
0A00
0600
ENDCHAR
STARTCHAR F000
ENCODING 61440
SWIDTH 818 0
DWIDTH 18 0
BBX 14 17 2 -1
BITMAP
0040
00C0
01C0
0180
3CF0
7FF8
FFF8
FFF0
FFF0
FFF0
FFF0
FFF8
7FFC
7FF8
3FF8
3FF0
1C60
ENDCHAR
STARTCHAR F001
ENCODING 61441
SWIDTH 500 0
DWIDTH 11 0
BBX 9 16 1 1
BITMAP
1D80
3D80
3000
3000
FD80
FD80
3180
3180
3180
3180
3180
3180
3180
3180
3180
3180
ENDCHAR
STARTCHAR F002
ENCODING 61442
SWIDTH 500 0
DWIDTH 11 0
BBX 9 16 1 1
BITMAP
1D80
3D80
3180
3180
FD80
FD80
3180
3180
3180
3180
3180
3180
3180
3180
3180
3180
ENDCHAR
ENDFONT
